<svg width="143" height="216" viewBox="0 0 143 216" fill="none" xmlns="http://www.w3.org/2000/svg">
<path d="M115.698 0.141266C108.772 10.5138 109.605 24.4317 118.188 36.5817C121.832 41.7408 125.969 46.5522 129.883 51.5203C138.112 61.9641 142.316 73.6574 142.013 87.1294C141.66 102.778 141.958 118.441 141.91 134.098C141.832 159.5 122.637 179.338 97.2655 178.342C84.3894 177.837 74.6974 181.128 66.0671 190.618C59.0441 198.341 50.6815 204.849 42.8788 211.857C41.5709 213.032 40.0896 214.014 37.57 215.939C37.57 206.087 37.4392 197.485 37.6047 188.889C37.7916 179.172 36.6234 179.018 29.0619 176.334C11.0048 169.926 -0.0583098 153.539 0.000231181 134.508C0.0483951 118.851 0.0123162 103.194 0.0264992 87.5374C0.0477092 64.1429 18.2507 45.468 41.6396 45.2526C54.7877 45.1314 67.9423 45.5841 81.0923 45.8544C89.9593 46.0367 91.7263 44.0914 90.4337 35.2493C88.2611 20.3874 100.562 2.59572 115.243 0C115.58 0.149643 115.698 0.141266 115.698 0.141266Z" fill="#F35C04"/>
</svg>
